<svg width="50" height="50" viewBox="0 0 50 50" fill="none" xmlns="http://www.w3.org/2000/svg">
<path fill-rule="evenodd" clip-rule="evenodd" d="M25.537 5C14.1732 5 5 14.1732 5 25.537C5 34.5733 10.8873 42.2405 19.1021 44.9787C20.1974 45.1156 20.4712 44.568 20.4712 44.0203V40.4606C14.7209 41.6928 13.4886 37.7223 13.4886 37.7223C12.5302 35.3948 11.1611 34.7102 11.1611 34.7102C9.24432 33.478 11.298 33.478 11.298 33.478C13.3517 33.6149 14.447 35.5317 14.447 35.5317C16.2269 38.6807 19.239 37.7223 20.4712 37.1747C20.6081 35.8055 21.1558 34.984 21.8404 34.4364C17.3222 33.8887 12.5302 32.1089 12.5302 24.3048C12.5302 22.1142 13.3517 20.1974 14.5839 18.8283C14.3101 18.2806 13.6255 16.2269 14.7209 13.3517C14.7209 13.3517 16.5007 12.8041 20.3343 15.4054C21.9773 14.9947 23.7571 14.7209 25.537 14.7209C27.3169 14.7209 29.0968 14.9947 30.7397 15.4054C34.7102 12.8041 36.3532 13.3517 36.3532 13.3517C37.4485 16.2269 36.7639 18.2806 36.4901 18.8283C37.8592 20.1974 38.5438 22.1142 38.5438 24.3048C38.5438 32.2458 33.7518 33.8887 29.2337 34.4364C29.9182 35.121 30.6028 36.3532 30.6028 38.27V43.8834C30.6028 44.4311 31.0136 45.1156 31.9719 44.8418C40.1868 42.1035 45.9371 34.4364 45.9371 25.4001C46.074 14.1732 36.9008 5 25.537 5Z" fill="#2D9CDB"/>
</svg>
