<svg width="30" height="30" viewBox="0 0 33 33" fill="none" xmlns="http://www.w3.org/2000/svg">
<path d="M18.0129 28.2679V5.26794C18.0129 5.00273 17.9076 4.74837 17.72 4.56084C17.5325 4.3733 17.2782 4.26794 17.0129 4.26794H5.01294C4.74772 4.26794 4.49337 4.3733 4.30583 4.56084C4.1183 4.74837 4.01294 5.00273 4.01294 5.26794V28.2679" stroke="#2D9CDB" stroke-width="2" stroke-linecap="round" stroke-linejoin="round"/>
<path d="M28.0129 28.2679V13.2679C28.0129 13.0027 27.9076 12.7484 27.72 12.5608C27.5325 12.3733 27.2782 12.2679 27.0129 12.2679H18.0129" stroke="#2D9CDB" stroke-width="2" stroke-linecap="round" stroke-linejoin="round"/>
<path d="M8.01294 9.26794H12.0129" stroke="#2D9CDB" stroke-width="2" stroke-linecap="round" stroke-linejoin="round"/>
<path d="M10.0129 19.2679H14.0129" stroke="#2D9CDB" stroke-width="2" stroke-linecap="round" stroke-linejoin="round"/>
<path d="M8.01294 24.2679H12.0129" stroke="#2D9CDB" stroke-width="2" stroke-linecap="round" stroke-linejoin="round"/>
<path d="M22.0129 22.2679H24.0129" stroke="#2D9CDB" stroke-width="2" stroke-linecap="round" stroke-linejoin="round"/>
<path d="M22.0129 17.2679H24.0129" stroke="#2D9CDB" stroke-width="2" stroke-linecap="round" stroke-linejoin="round"/>
</svg>
