<svg xmlns="http://www.w3.org/2000/svg" fill="none">
<title>Github Icon</title>
<path
fill-rule="evenodd"
d="M25.537 5C14.173 5 5 14.173 5 25.537c0 9.036 5.887 16.703 14.102 19.442 1.095.137 1.37-.411 1.37-.959v-3.56c-5.751 1.233-6.983-2.738-6.983-2.738-.959-2.327-2.328-3.012-2.328-3.012-1.917-1.232.137-1.232.137-1.232 2.054.137 3.149 2.054 3.149 2.054 1.78 3.149 4.792 2.19 6.024 1.643.137-1.37.685-2.191 1.37-2.739-4.519-.547-9.31-2.327-9.31-10.131 0-2.19.82-4.108 2.053-5.477-.274-.547-.958-2.601.137-5.476 0 0 1.78-.548 5.613 2.053 1.643-.41 3.423-.684 5.203-.684 1.78 0 3.56.274 5.203.684 3.97-2.6 5.613-2.053 5.613-2.053 1.096 2.875.41 4.929.137 5.476 1.37 1.37 2.054 3.286 2.054 5.477 0 7.94-4.792 9.584-9.31 10.131.684.685 1.369 1.917 1.369 3.834v5.613c0 .548.41 1.233 1.369.959 8.215-2.739 13.965-10.406 13.965-19.442.137-11.227-9.036-20.4-20.4-20.4Z"
clip-rule="evenodd"
/>
        </svg>